<?xml version="1.0" encoding="UTF-8" standalone="no" ?>
<!DOCTYPE svg PUBLIC "-//W3C//DTD SVG 1.1//EN" "http://www.w3.org/Graphics/SVG/1.1/DTD/svg11.dtd">
<svg xmlns="http://www.w3.org/2000/svg" xmlns:xlink="http://www.w3.org/1999/xlink" version="1.1" width="1280" height="1024" viewBox="0 0 1280 1024" xml:space="preserve">
<desc>Created with Fabric.js 3.1.0</desc>
<defs>
</defs>
<g transform="matrix(1.9692780337941629 0 0 1.9692780337941629 640.0153846153846 512.012312418764)" id="background-logo"  >
<rect style="stroke: none; stroke-width: 1; stroke-dasharray: none; stroke-linecap: butt; stroke-dashoffset: 0; stroke-linejoin: miter; stroke-miterlimit: 4; fill: rgb(255,255,255); fill-rule: nonzero; opacity: 1;"  paint-order="stroke"  x="-325" y="-260" rx="0" ry="0" width="650" height="520" />
</g>
<g transform="matrix(1.9692780337941629 0 0 1.9692780337941629 640.0153846153846 389.2297220544447)" style="" id="logo-logo"  >
	<g transform="matrix(1.4625931070930813 0 0 -1.4625931070930813 -73.0214234647292 -20.2868976919346)"  >
<linearGradient id="SVGID_57503" gradientUnits="userSpaceOnUse" gradientTransform="matrix(-176.45468 -176.45468 -176.45468 176.45468 216.18848 255.56885)"  x1="0" y1="0" x2="1" y2="0">
<stop offset="0%" style="stop-color:rgb(52,184,132);stop-opacity: 1"/>
<stop offset="100%" style="stop-color:rgb(46,189,182);stop-opacity: 1"/>
</linearGradient>
<path style="stroke: none; stroke-width: 1; stroke-dasharray: none; stroke-linecap: butt; stroke-dashoffset: 0; stroke-linejoin: miter; stroke-miterlimit: 4; fill: url(#SVGID_57503); fill-rule: nonzero; opacity: 1;"  paint-order="stroke"  transform=" translate(-111.70849999999999, -142.691)" d="m 92.817 188.928 l -6.32 -1.453 v -6.474 c 0 -23.602 1.41 -43 4.888 -59.538 v 0 c 0.463 -2.177 0.949 -4.314 1.499 -6.383 v 0 c 1.54 -6.076 3.412 -11.736 5.637 -17.066 v 0 c 0.747 -1.803 1.54 -3.563 2.375 -5.306 v 0 c 0.068 -0.155 0.133 -0.308 0.2 -0.438 v 0 c 5.46 1.231 10.921 2.244 16.448 3.058 v 0 c -1.585 2.952 -3.017 6.056 -4.338 9.335 v 0 c -0.749 1.875 -1.453 3.81 -2.114 5.794 v 0 c -1.938 5.832 -3.522 12.195 -4.755 19.263 v 0 c -0.419 2.379 -0.816 4.824 -1.146 7.357 v 0 c -1.365 9.973 -2.136 21.247 -2.378 34.105 v 0 l -0.044 2.949 l 2.928 0.333 c 6.673 0.748 15.369 1.43 24.111 1.958 v 0 c 2.62 5.462 4.998 11.031 7.112 16.69 v 0 c -16.778 -0.879 -36.024 -2.335 -44.103 -4.184" stroke-linecap="round" />
</g>
	<g transform="matrix(1.4625931070930813 0 0 -1.4625931070930813 12.464949755200848 92.48926901669171)"  >
<linearGradient id="SVGID_57504" gradientUnits="userSpaceOnUse" gradientTransform="matrix(-176.45828 -176.45828 -176.45828 176.45828 283.77441 187.9873)"  x1="0" y1="0" x2="1" y2="0">
<stop offset="0%" style="stop-color:rgb(52,184,132);stop-opacity: 1"/>
<stop offset="100%" style="stop-color:rgb(46,189,182);stop-opacity: 1"/>
</linearGradient>
<path style="stroke: none; stroke-width: 1; stroke-dasharray: none; stroke-linecap: butt; stroke-dashoffset: 0; stroke-linejoin: miter; stroke-miterlimit: 4; fill: url(#SVGID_57504); fill-rule: nonzero; opacity: 1;"  paint-order="stroke"  transform=" translate(-170.157, -65.58399999999999)" d="m 206.716 91.059 c -0.991 -1.676 -2.047 -3.307 -3.17 -4.888 v 0 c -3.545 -5.023 -7.575 -9.643 -12.132 -14.029 v 0 c -1.628 -1.586 -3.346 -3.147 -5.131 -4.664 v 0 C 180.118 62.126 173.096 56.997 165.169 51.712 v 0 l -1.806 -1.212 l -1.806 1.212 c -9.202 6.143 -17.196 12.067 -24.066 18.384 v 0 c -6.693 -0.461 -13.342 -1.233 -19.947 -2.356 v 0 C 127.958 55.958 141.522 45.215 158.96 33.986 v 0 l 4.403 -2.816 l 4.383 2.816 c 15.213 9.776 27.478 19.201 37.275 29.286 v 0 c 1.452 1.497 2.863 3.016 4.229 4.558 v 0 c 3.919 4.447 7.396 9.025 10.458 13.85 v 0 c 1.012 1.584 1.961 3.189 2.883 4.843 v 0 c 0.067 0.087 0.135 0.173 0.179 0.285 v 0 c -3.944 4.271 -7.71 8.677 -11.274 13.19 v 0 c -1.431 -3.128 -3.016 -6.1 -4.78 -8.939" stroke-linecap="round" />
</g>
	<g transform="matrix(1.4625931070930813 0 0 -1.4625931070930813 56.48461449938128 -38.016451336116916)"  >
<linearGradient id="SVGID_57505" gradientUnits="userSpaceOnUse" gradientTransform="matrix(-176.46085 -176.46085 -176.46085 176.46085 258.49805 213.26318)"  x1="0" y1="0" x2="1" y2="0">
<stop offset="0%" style="stop-color:rgb(52,184,132);stop-opacity: 1"/>
<stop offset="100%" style="stop-color:rgb(46,189,182);stop-opacity: 1"/>
</linearGradient>
<path style="stroke: none; stroke-width: 1; stroke-dasharray: none; stroke-linecap: butt; stroke-dashoffset: 0; stroke-linejoin: miter; stroke-miterlimit: 4; fill: url(#SVGID_57505); fill-rule: nonzero; opacity: 1;"  paint-order="stroke"  transform=" translate(-200.254, -154.813)" d="m 160.302 177.721 c 1.125 0.044 2.158 0.044 3.061 0.044 v 0 c 2.048 0 4.735 -0.044 7.86 -0.131 v 0 c 1.808 -0.067 3.744 -0.131 5.814 -0.198 v 0 c 5.307 -0.221 11.338 -0.509 17.416 -0.86 v 0 c 2.003 -0.109 4.009 -0.241 5.986 -0.374 v 0 c 7.532 -0.509 14.823 -1.101 20.569 -1.738 v 0 l 2.929 -0.333 l -0.044 -2.949 c -0.265 -14.311 -1.19 -26.663 -2.841 -37.451 v 0 c 3.963 -6.254 8.277 -12.288 12.925 -18.078 v 0 c 4.469 17.768 6.229 38.906 6.229 65.348 v 0 v 6.474 l -6.296 1.453 c -7.223 1.653 -23.229 2.973 -38.509 3.855 v 0 c -1.939 0.131 -3.877 0.218 -5.771 0.329 v 0 c -6.207 0.308 -12.087 0.548 -16.909 0.705 v 0 c -2.092 0.066 -4.008 0.111 -5.657 0.128 v 0 c -0.332 0 -0.642 0.028 -0.949 0.028 v 0 c -1.739 -5.509 -3.676 -10.944 -5.813 -16.252" stroke-linecap="round" />
</g>
	<g transform="matrix(1.4625931070930813 0 0 -1.4625931070930813 82.55314274365475 21.963760689216826)"  >
<linearGradient id="SVGID_57506" gradientUnits="userSpaceOnUse" gradientTransform="matrix(-176.45251 -176.45251 -176.45251 176.45251 283.98047 187.77588)"  x1="0" y1="0" x2="1" y2="0">
<stop offset="0%" style="stop-color:rgb(52,184,132);stop-opacity: 1"/>
<stop offset="100%" style="stop-color:rgb(46,189,182);stop-opacity: 1"/>
</linearGradient>
<path style="stroke: none; stroke-width: 1; stroke-dasharray: none; stroke-linecap: butt; stroke-dashoffset: 0; stroke-linejoin: miter; stroke-miterlimit: 4; fill: url(#SVGID_57506); fill-rule: nonzero; opacity: 1;"  paint-order="stroke"  transform=" translate(-218.07750000000001, -113.80349999999996)" d="m 210.088 110.942 c 1.232 -1.743 2.531 -3.458 3.853 -5.156 v 0 c 3.633 -4.731 7.482 -9.357 11.536 -13.804 v 0 c 1.276 -1.409 2.576 -2.795 3.896 -4.16 v 0 c 1.431 -1.519 2.883 -3.016 4.383 -4.492 v 0 l -3.414 -5.327 c -1.807 0.681 -3.589 1.319 -5.415 1.937 v 0 c -2.95 -4.803 -6.297 -9.402 -10.04 -13.831 v 0 c 9.006 -2.86 17.811 -6.318 26.331 -10.368 v 0 c 6.542 8.742 11.827 17.944 16.14 27.961 v 0 c -7.551 6.386 -14.598 13.302 -21.094 20.655 v 0 c -1.407 1.563 -2.772 3.15 -4.094 4.756 v 0 c -4.47 5.35 -8.651 10.899 -12.529 16.646 v 0 c -1.496 2.201 -2.927 4.402 -4.293 6.648 v 0 c -7.595 12.157 -13.936 25.079 -18.892 38.532 v 0 c -6.078 0.374 -12.195 0.681 -17.659 0.927 v 0 c 7.246 -21.844 17.771 -42.342 31.291 -60.924" stroke-linecap="round" />
</g>
	<g transform="matrix(1.4625931070930813 0 0 -1.4625931070930813 -43.60282570865894 60.89725790348109)"  >
<linearGradient id="SVGID_57507" gradientUnits="userSpaceOnUse" gradientTransform="matrix(-176.4584 -176.4584 -176.4584 176.4584 257.08496 214.67529)"  x1="0" y1="0" x2="1" y2="0">
<stop offset="0%" style="stop-color:rgb(52,184,132);stop-opacity: 1"/>
<stop offset="100%" style="stop-color:rgb(46,189,182);stop-opacity: 1"/>
</linearGradient>
<path style="stroke: none; stroke-width: 1; stroke-dasharray: none; stroke-linecap: butt; stroke-dashoffset: 0; stroke-linejoin: miter; stroke-miterlimit: 4; fill: url(#SVGID_57507); fill-rule: nonzero; opacity: 1;"  paint-order="stroke"  transform=" translate(-131.8225, -87.184)" d="M 65.911 92.602 C 69.655 82.031 74.299 72.473 80.068 63.514 v 0 c 9.006 3.28 18.188 5.923 27.502 7.924 v 0 c 1.96 0.421 3.918 0.817 5.899 1.169 v 0 c 6.21 1.168 12.486 2.028 18.804 2.575 v 0 c 2.422 0.246 4.846 0.419 7.288 0.553 v 0 c 3.898 0.218 7.818 0.327 11.736 0.327 v 0 c 11.12 0 22.26 -0.902 33.293 -2.729 v 0 c 5.017 4.491 9.381 9.137 13.144 14.156 v 0 c -15.217 3.216 -30.736 4.825 -46.414 4.825 v 0 c -8.28 0 -16.558 -0.462 -24.77 -1.388 v 0 c -2.027 -0.221 -4.03 -0.464 -6.012 -0.75 v 0 c -5.637 -0.77 -11.251 -1.759 -16.8 -2.97 v 0 c -1.805 -0.398 -3.611 -0.795 -5.417 -1.259 v 0 c -2.003 -0.461 -4.007 -0.988 -5.987 -1.516 v 0 l -2.929 5.635 c 1.651 1.368 3.301 2.754 4.909 4.161 v 0 c -2.289 5.244 -4.226 10.75 -5.856 16.627 v 0 C 81.411 104.27 73.881 98.169 65.911 92.602" stroke-linecap="round" />
</g>
	<g transform="matrix(1.4625931070930813 0 0 -1.4625931070930813 -17.581831740365885 -61.349199173572856)"  >
<linearGradient id="SVGID_57508" gradientUnits="userSpaceOnUse" gradientTransform="matrix(-176.45799 -176.45799 -176.45799 176.45799 217.33398 254.42725)"  x1="0" y1="0" x2="1" y2="0">
<stop offset="0%" style="stop-color:rgb(52,184,132);stop-opacity: 1"/>
<stop offset="100%" style="stop-color:rgb(46,189,182);stop-opacity: 1"/>
</linearGradient>
<path style="stroke: none; stroke-width: 1; stroke-dasharray: none; stroke-linecap: butt; stroke-dashoffset: 0; stroke-linejoin: miter; stroke-miterlimit: 4; fill: url(#SVGID_57508); fill-rule: nonzero; opacity: 1;"  paint-order="stroke"  transform=" translate(-149.61350000000002, -170.766)" d="m 151.782 226.206 c -1.695 -9.272 -4.03 -18.361 -6.958 -27.239 v 0 c -0.595 -1.869 -1.234 -3.743 -1.917 -5.57 v 0 c -2.025 -5.637 -4.292 -11.184 -6.803 -16.601 v 0 c -0.859 -1.913 -1.759 -3.787 -2.708 -5.657 v 0 c -6.251 -12.639 -13.805 -24.62 -22.502 -35.76 v 0 c 1.1 -7.509 2.555 -14.224 4.404 -20.318 v 0 c 15.038 17.038 27.346 36.196 36.572 56.933 v 0 c 0.837 1.85 1.653 3.699 2.422 5.596 v 0 c 2.223 5.349 4.228 10.81 6.032 16.355 v 0 c 0.595 1.832 1.168 3.681 1.718 5.531 v 0 c 0.683 2.29 1.321 4.581 1.939 6.891 v 0 l 6.34 -0.285 c 0.376 -2.268 0.794 -4.516 1.235 -6.74 v 0 c 4.666 -0.129 10.501 -0.352 16.777 -0.66 v 0 c -1.983 8.917 -3.346 17.99 -4.117 27.171 v 0 c -9.403 0.394 -17.57 0.618 -20.853 0.618 v 0 c -1.783 0 -5.769 -0.067 -11.581 -0.265" stroke-linecap="round" />
</g>
</g>
<g transform="matrix(1.9692780337941629 0 0 1.9692780337941629 640.4978577336642 800.236349973012)" id="text-logo-path"  >
<path style="stroke: rgb(48,187,165); stroke-width: 0; stroke-dasharray: none; stroke-linecap: butt; stroke-dashoffset: 0; stroke-linejoin: miter; stroke-miterlimit: 4; fill: rgb(50,186,153); fill-rule: nonzero; opacity: 1;"  paint-order="stroke"  transform=" translate(-238.24274562563087, 34.155)" d="M 19.99 0.98 L 19.99 0.98 Q 14.5 0.98 10.14 -1.62 Q 5.78 -4.21 3.28 -8.77 Q 0.78 -13.33 0.78 -19.01 L 0.78 -19.01 L 0.78 -23.52 Q 0.78 -23.91 1.18 -23.91 L 1.18 -23.91 L 12.25 -23.91 Q 12.64 -23.91 12.64 -23.42 L 12.64 -23.42 L 12.64 -19.01 Q 12.64 -15.39 14.7 -13.13 Q 16.76 -10.88 19.99 -10.88 L 19.99 -10.88 Q 22.93 -10.88 25.09 -13.33 Q 27.24 -15.78 27.24 -19.01 L 27.24 -19.01 L 27.24 -67.72 Q 27.24 -68.11 27.64 -68.11 L 27.64 -68.11 L 38.61 -68.11 Q 39 -68.11 39 -67.62 L 39 -67.62 L 39.1 -19.01 Q 39.1 -13.62 36.51 -9.06 Q 33.91 -4.51 29.6 -1.76 Q 25.28 0.98 19.99 0.98 Z M 41.26 -0.49 L 41.26 -0.49 L 53.41 -67.82 Q 53.51 -68.21 53.9 -68.21 L 53.9 -68.21 L 68.11 -68.21 Q 68.5 -68.21 68.6 -67.82 L 68.6 -67.82 L 80.26 -0.49 Q 80.36 0 79.87 0 L 79.87 0 L 68.99 0 Q 68.6 0 68.5 -0.49 L 68.5 -0.49 L 67.42 -7.64 L 54.1 -7.64 L 53.02 -0.49 Q 52.92 0 52.53 0 L 52.53 0 L 41.65 0 Q 41.26 0 41.26 -0.49 Z M 60.47 -45.67 L 56.06 -18.13 L 65.46 -18.13 L 61.45 -45.67 L 60.86 -49.29 L 60.47 -45.67 Z M 122.79 0 L 111.72 0 Q 111.33 0 111.33 -0.49 L 111.33 -0.49 L 111.33 -56.35 L 98.59 -56.35 Q 98.1 -56.35 98.1 -56.84 L 98.1 -56.84 L 98.2 -67.82 Q 98.2 -68.21 98.59 -68.21 L 98.59 -68.21 L 135.83 -68.21 Q 136.32 -68.21 136.32 -67.82 L 136.32 -67.82 L 136.32 -56.84 Q 136.32 -56.35 135.93 -56.35 L 135.93 -56.35 L 123.09 -56.35 L 123.19 -0.49 Q 123.19 0 122.79 0 L 122.79 0 Z M 157.09 0.98 L 157.09 0.98 Q 151.8 0.98 147.44 -1.72 Q 143.08 -4.41 140.43 -8.87 Q 137.79 -13.33 137.79 -18.72 L 137.79 -18.72 L 137.89 -49.78 Q 137.89 -55.17 140.48 -59.58 Q 143.08 -63.99 147.49 -66.64 Q 151.9 -69.29 157.09 -69.29 L 157.09 -69.29 Q 162.39 -69.29 166.7 -66.64 Q 171.01 -63.99 173.61 -59.58 Q 176.2 -55.17 176.2 -49.78 L 176.2 -49.78 L 176.3 -18.72 Q 176.3 -13.33 173.71 -8.87 Q 171.11 -4.41 166.75 -1.72 Q 162.39 0.98 157.09 0.98 Z M 157.09 -10.88 L 157.09 -10.88 Q 160.03 -10.88 162.24 -13.28 Q 164.44 -15.68 164.44 -18.72 L 164.44 -18.72 L 164.35 -49.78 Q 164.35 -53.02 162.29 -55.27 Q 160.23 -57.53 157.09 -57.53 L 157.09 -57.53 Q 154.06 -57.53 151.9 -55.32 Q 149.74 -53.12 149.74 -49.78 L 149.74 -49.78 L 149.74 -18.72 Q 149.74 -15.48 151.9 -13.18 Q 154.06 -10.88 157.09 -10.88 Z M 202.86 0 L 191 0 Q 190.61 0 190.51 -0.49 L 190.51 -0.49 L 178.95 -67.82 Q 178.85 -68.21 179.24 -68.21 L 179.24 -68.21 L 190.22 -68.21 Q 190.61 -68.21 190.71 -67.82 L 190.71 -67.82 L 196.98 -23.52 L 203.45 -67.82 Q 203.55 -68.21 204.04 -68.21 L 204.04 -68.21 L 212.86 -68.21 Q 213.25 -68.21 213.35 -67.82 L 213.35 -67.82 L 219.72 -23.52 L 226.09 -67.82 Q 226.18 -68.21 226.58 -68.21 L 226.58 -68.21 L 237.45 -68.21 Q 237.94 -68.21 237.85 -67.82 L 237.85 -67.82 L 226.18 -0.49 Q 226.09 -0.29 225.89 -0.15 Q 225.69 0 225.69 0 L 225.69 0 L 213.84 0 Q 213.54 0 213.35 -0.49 L 213.35 -0.49 L 208.35 -35.67 L 203.35 -0.49 Q 203.25 0 202.86 0 L 202.86 0 Z M 279.01 0 L 267.93 0 Q 267.54 0 267.54 -0.49 L 267.54 -0.49 L 267.54 -56.35 L 254.8 -56.35 Q 254.31 -56.35 254.31 -56.84 L 254.31 -56.84 L 254.41 -67.82 Q 254.41 -68.21 254.8 -68.21 L 254.8 -68.21 L 292.04 -68.21 Q 292.53 -68.21 292.53 -67.82 L 292.53 -67.82 L 292.53 -56.84 Q 292.53 -56.35 292.14 -56.35 L 292.14 -56.35 L 279.3 -56.35 L 279.4 -0.49 Q 279.4 0 279.01 0 L 279.01 0 Z M 308.8 0 L 297.72 0 Q 297.33 0 297.33 -0.49 L 297.33 -0.49 L 297.53 -67.82 Q 297.53 -68.21 297.92 -68.21 L 297.92 -68.21 L 317.72 -68.21 Q 323.01 -68.21 327.47 -65.61 Q 331.93 -63.01 334.57 -58.65 Q 337.22 -54.29 337.22 -48.8 L 337.22 -48.8 Q 337.22 -45.18 336.14 -42.29 Q 335.06 -39.4 333.59 -37.39 Q 332.12 -35.38 330.95 -34.4 L 330.95 -34.4 Q 336.24 -28.52 336.24 -20.58 L 336.24 -20.58 L 336.34 -0.49 Q 336.34 0 335.85 0 L 335.85 0 L 324.77 0 Q 324.38 0 324.38 -0.29 L 324.38 -0.29 L 324.38 -20.58 Q 324.38 -24.11 321.88 -26.71 Q 319.38 -29.3 315.76 -29.3 L 315.76 -29.3 L 309.29 -29.3 L 309.19 -0.49 Q 309.19 0 308.8 0 L 308.8 0 Z M 309.29 -56.45 L 309.29 -41.06 L 317.72 -41.06 Q 320.75 -41.06 323.11 -43.32 Q 325.46 -45.57 325.46 -48.8 L 325.46 -48.8 Q 325.46 -51.94 323.15 -54.19 Q 320.85 -56.45 317.72 -56.45 L 317.72 -56.45 L 309.29 -56.45 Z M 362.6 0.98 L 362.6 0.98 Q 357.41 0.98 353 -1.72 Q 348.59 -4.41 345.99 -8.92 Q 343.39 -13.43 343.39 -18.82 L 343.39 -18.82 L 343.59 -67.82 Q 343.59 -68.21 343.98 -68.21 L 343.98 -68.21 L 354.96 -68.21 Q 355.35 -68.21 355.35 -67.82 L 355.35 -67.82 L 355.35 -18.82 Q 355.35 -15.48 357.45 -13.18 Q 359.56 -10.88 362.6 -10.88 L 362.6 -10.88 Q 365.74 -10.88 367.84 -13.18 Q 369.95 -15.48 369.95 -18.82 L 369.95 -18.82 L 369.95 -67.82 Q 369.95 -68.21 370.34 -68.21 L 370.34 -68.21 L 381.32 -68.21 Q 381.71 -68.21 381.71 -67.82 L 381.71 -67.82 L 381.91 -18.82 Q 381.91 -13.33 379.31 -8.82 Q 376.71 -4.31 372.35 -1.67 Q 367.99 0.98 362.6 0.98 Z M 407.68 0.98 L 407.68 0.98 Q 402.29 0.98 397.93 -1.72 Q 393.57 -4.41 391.02 -8.92 Q 388.47 -13.43 388.47 -19.01 L 388.47 -19.01 L 388.57 -49.59 Q 388.57 -54.98 391.07 -59.44 Q 393.57 -63.9 397.93 -66.59 Q 402.29 -69.29 407.68 -69.29 L 407.68 -69.29 Q 413.07 -69.29 417.38 -66.64 Q 421.69 -63.99 424.24 -59.54 Q 426.79 -55.08 426.79 -49.59 L 426.79 -49.59 L 426.79 -45.08 Q 426.79 -44.69 426.4 -44.69 L 426.4 -44.69 L 415.42 -44.69 Q 415.03 -44.69 415.03 -45.08 L 415.03 -45.08 L 415.03 -49.59 Q 415.03 -52.82 412.92 -55.17 Q 410.82 -57.53 407.68 -57.53 L 407.68 -57.53 Q 404.15 -57.53 402.29 -55.13 Q 400.43 -52.72 400.43 -49.59 L 400.43 -49.59 L 400.43 -19.01 Q 400.43 -15.39 402.53 -13.13 Q 404.64 -10.88 407.68 -10.88 L 407.68 -10.88 Q 410.82 -10.88 412.92 -13.38 Q 415.03 -15.88 415.03 -19.01 L 415.03 -19.01 L 415.03 -23.52 Q 415.03 -23.91 415.42 -23.91 L 415.42 -23.91 L 426.5 -23.91 Q 426.89 -23.91 426.89 -23.52 L 426.89 -23.52 L 426.89 -19.01 Q 426.89 -13.43 424.29 -8.92 Q 421.69 -4.41 417.38 -1.72 Q 413.07 0.98 407.68 0.98 Z M 445.51 0 L 434.43 0 Q 434.04 0 434.04 -0.49 L 434.04 -0.49 L 434.24 -67.72 Q 434.24 -68.21 434.63 -68.21 L 434.63 -68.21 L 445.61 -68.21 Q 446 -68.21 446 -67.72 L 446 -67.72 L 446 -44.49 L 461.38 -67.82 Q 461.68 -68.21 462.07 -68.21 L 462.07 -68.21 L 473.34 -68.21 Q 473.73 -68.21 473.54 -67.82 L 473.54 -67.82 L 456.58 -40.77 L 475.59 -0.39 Q 475.79 0 475.1 0 L 475.1 0 L 463.15 0 Q 462.66 0 462.56 -0.39 L 462.56 -0.39 L 449.33 -29.2 L 445.9 -23.81 L 445.9 -0.49 Q 445.9 0 445.51 0 L 445.51 0 Z" stroke-linecap="round" />
</g>
</svg>